<?xml version="1.0" encoding="UTF-8" standalone="no"?>
<svg
   xmlns:dc="http://purl.org/dc/elements/1.1/"
   xmlns:cc="http://creativecommons.org/ns#"
   xmlns:rdf="http://www.w3.org/1999/02/22-rdf-syntax-ns#"
   xmlns:svg="http://www.w3.org/2000/svg"
   xmlns="http://www.w3.org/2000/svg"
   xmlns:sodipodi="http://sodipodi.sourceforge.net/DTD/sodipodi-0.dtd"
   xmlns:inkscape="http://www.inkscape.org/namespaces/inkscape"
   version="1.1"
   x="0px"
   y="0px"
   viewBox="0 0 60.212887 76.110375"
   xml:space="preserve"
   id="svg16"
   sodipodi:docname="clothing.svg"
   width="60.212887"
   height="76.110374"
   inkscape:version="0.92.4 (5da689c313, 2019-01-14)"><metadata
     id="metadata22"><rdf:RDF><cc:Work
         rdf:about=""><dc:format>image/svg+xml</dc:format><dc:type
           rdf:resource="http://purl.org/dc/dcmitype/StillImage" /><dc:title></dc:title></cc:Work></rdf:RDF></metadata><defs
     id="defs20" /><sodipodi:namedview
     pagecolor="#ffffff"
     bordercolor="#666666"
     borderopacity="1"
     objecttolerance="10"
     gridtolerance="10"
     guidetolerance="10"
     inkscape:pageopacity="0"
     inkscape:pageshadow="2"
     inkscape:window-width="640"
     inkscape:window-height="480"
     id="namedview18"
     showgrid="false"
     fit-margin-top="0"
     fit-margin-left="0"
     fit-margin-right="0"
     fit-margin-bottom="0"
     inkscape:zoom="1.888"
     inkscape:cx="30.106512"
     inkscape:cy="25.554923"
     inkscape:window-x="0"
     inkscape:window-y="0"
     inkscape:window-maximized="0"
     inkscape:current-layer="svg16" /><g
     id="g10"
     transform="translate(-19.893488,-11.944553)"><path
       d="m 75.635742,21.099825 c -2.780517,-1.049439 -5.435425,-1.831604 -7.9151,-2.350708 -3.408569,-3.810242 -7.705261,-5.567505 -8.847778,-5.984436 -0.04193,-0.01508 -0.08362,-0.03033 -0.125916,-0.04498 -0.08081,-0.02838 -0.142883,-0.04956 -0.16101,-0.05542 l -0.0024,0.0072 c -1.449707,-0.478515 -3.144165,-0.726928 -5.090393,-0.726928 -1.941956,0 -3.633484,0.246582 -5.077148,0.725647 l -0.002,-0.0059 c -0.01599,0.0052 -0.06366,0.02124 -0.12854,0.04382 -0.01642,0.0057 -0.03247,0.01172 -0.04883,0.01746 -0.929809,0.32837 -5.418396,2.068116 -8.957397,6.02356 -2.479675,0.519104 -5.134644,1.30127 -7.916016,2.350708 -2.551513,0.963562 -4.284668,3.38739 -4.439575,6.104187 -0.850708,0.279419 -1.705749,0.573242 -2.560425,0.895813 -2.673828,1.009766 -4.469726,3.619141 -4.469726,6.493162 v 47.087891 c 0,3.514648 2.859375,6.374023 6.374023,6.374023 h 20.225586 0.01367 20.225586 c 3.514648,0 6.374023,-2.859375 6.374023,-6.374023 v -0.625977 h 0.625977 c 3.514648,0 6.374023,-2.859375 6.374023,-6.374023 V 27.592989 c 0,-2.874024 -1.795898,-5.483399 -4.470703,-6.493164 z m -9.856445,-0.02344 c 0.388672,0.460938 0.647461,1.013672 0.748047,1.59961 0.426758,2.5 0.796875,8.631836 -4.080078,14.522459 -0.817932,-1.300476 -2.120545,-2.960572 -3.948059,-4.144287 3.287292,-2.134154 5.357055,-6.248839 5.859192,-10.334227 0.136413,-1.110474 0.138916,-2.140686 0.02405,-3.097595 0.480347,0.444885 0.951111,0.926941 1.396851,1.45404 z m -8.120972,-5.559997 -1.22e-4,4.27e-4 c 6.72e-4,2.44e-4 0.01135,0.004 0.01379,0.0048 0.188294,0.06299 0.367493,0.132507 0.541626,0.20581 0.06067,0.02454 0.125305,0.05096 0.194641,0.08002 0.729187,0.332642 1.329285,0.759278 1.791931,1.282593 1.064453,1.203125 1.461914,2.97461 1.179688,5.264649 -0.560547,4.570312 -3.450195,9.196289 -7.886719,9.196289 -4.111328,0 -7.353516,-3.766602 -7.883789,-9.160157 -0.233398,-2.36914 0.196289,-4.174804 1.277344,-5.367187 0.462097,-0.509705 1.058655,-0.925171 1.782837,-1.248169 0.03979,-0.01642 0.08075,-0.03351 0.11737,-0.04828 1.220764,-0.518249 2.791321,-0.782654 4.706238,-0.782654 1.639343,0 3.027649,0.193665 4.165161,0.571839 z m -16.438598,5.560974 c 0.458496,-0.542175 0.943603,-1.035767 1.438171,-1.490967 -0.126587,0.954468 -0.144409,1.983887 -0.03485,3.097412 0.464783,4.723877 2.662048,8.477661 5.799683,10.418333 -1.787537,1.180237 -3.063416,2.813965 -3.869996,4.096314 -4.876953,-5.890623 -4.506835,-12.022459 -4.080078,-14.522459 0.100586,-0.585938 0.359375,-1.138672 0.74707,-1.598633 z m -11.326172,6.515625 c 0,-1.633789 1.016601,-3.115234 2.529297,-3.686523 1.730529,-0.652832 3.440795,-1.197754 5.078369,-1.641297 -0.536072,3.237488 -0.934693,11.324034 6.312256,18.570982 0.284179,0.28418 0.666992,0.439453 1.060546,0.439453 0.09863,0 0.198243,-0.0098 0.295899,-0.0293 0.493164,-0.09961 0.90332,-0.438476 1.092773,-0.90332 0.02087,-0.05212 1.925415,-4.585388 5.730469,-5.588013 V 78.054901 H 33.267578 c -1.860352,0 -3.374023,-1.513672 -3.374023,-3.374023 V 27.592989 Z m 40.21289,54.087889 c 0,1.860351 -1.513672,3.374023 -3.374023,3.374023 H 46.506836 46.493164 26.267578 c -1.860352,0 -3.374023,-1.513672 -3.374023,-3.374023 V 34.592987 c 0,-1.633789 1.016601,-3.115232 2.529297,-3.686521 0.490051,-0.184998 0.980713,-0.357483 1.470703,-0.527954 V 74.68088 c 0,3.514648 2.859375,6.374023 6.374023,6.374023 h 20.225586 0.01367 16.599609 v 0.625975 z m 7,-7 c 0,1.860351 -1.513672,3.374023 -3.374023,3.374023 H 54.993164 V 34.753998 c 3.790955,1.000549 5.724121,5.540344 5.744141,5.588989 0.189453,0.464844 0.599609,0.803711 1.092773,0.90332 0.09863,0.01953 0.197266,0.0293 0.295898,0.0293 0.393555,0 0.776368,-0.155273 1.060547,-0.439453 7.246949,-7.246948 6.848328,-15.333494 6.312256,-18.570982 1.637451,0.443543 3.347473,0.988465 5.077393,1.641297 1.513672,0.571289 2.530273,2.052734 2.530273,3.686523 v 47.087889 z"
       id="path2"
       inkscape:connector-curvature="0" /><path
       d="m 57.639648,45.746307 c 0.290039,0.290039 0.669922,0.449219 1.070313,0.449219 0.389648,0 0.769531,-0.15918 1.049805,-0.449219 0.290039,-0.280273 0.440429,-0.660156 0.440429,-1.050781 0,-0.399414 -0.160156,-0.790039 -0.440429,-1.069336 -0.05957,-0.07031 -0.139649,-0.129883 -0.219727,-0.180664 -0.08008,-0.05957 -0.169922,-0.09961 -0.259766,-0.139648 -0.09082,-0.04004 -0.190429,-0.07031 -0.280273,-0.08984 -0.19043,-0.03027 -0.400391,-0.03027 -0.589844,0 -0.09082,0.01953 -0.19043,0.0498 -0.280273,0.08984 -0.08984,0.04004 -0.179688,0.08008 -0.259766,0.139648 -0.08008,0.05078 -0.160156,0.110352 -0.230469,0.180664 -0.07031,0.06934 -0.129882,0.149414 -0.179687,0.229492 -0.06055,0.08008 -0.100586,0.169922 -0.140625,0.259766 -0.03906,0.09082 -0.06934,0.19043 -0.08984,0.280273 -0.0098,0.100586 -0.0293,0.200196 -0.0293,0.299805 0,0.19043 0.04004,0.390625 0.119141,0.570313 0.07031,0.179687 0.180664,0.339843 0.320311,0.480468 z"
       id="path4"
       inkscape:connector-curvature="0" /><path
       d="m 59.950195,57.315643 c -0.05078,-0.08008 -0.120117,-0.160156 -0.190429,-0.229492 -0.339844,-0.339844 -0.860352,-0.5 -1.34961,-0.410156 -0.09082,0.01953 -0.19043,0.0498 -0.280273,0.08984 -0.08984,0.04004 -0.179688,0.08008 -0.259766,0.139648 -0.08008,0.05078 -0.160156,0.120117 -0.220703,0.180664 -0.279297,0.279297 -0.439453,0.669922 -0.439453,1.069336 0,0.200195 0.03027,0.390625 0.109375,0.570313 0.07031,0.179687 0.180664,0.339843 0.330078,0.490234 0.280273,0.280273 0.660156,0.439453 1.060547,0.439453 0.189453,0 0.389648,-0.04004 0.570312,-0.119141 0.179688,-0.07031 0.339844,-0.180664 0.479493,-0.320312 0.290039,-0.290039 0.440429,-0.660156 0.440429,-1.060547 0,-0.09961 -0.01074,-0.199219 -0.03027,-0.299805 -0.0098,-0.08984 -0.04004,-0.189453 -0.08008,-0.280273 C 60.049805,57.485565 60,57.395721 59.950195,57.315643 Z"
       id="path6"
       inkscape:connector-curvature="0" /><path
       d="m 60.089844,71.036346 c -0.04004,-0.09082 -0.08008,-0.180664 -0.139649,-0.260742 -0.05078,-0.08008 -0.120117,-0.160156 -0.180664,-0.229492 -0.55957,-0.560547 -1.569336,-0.549805 -2.120117,0 -0.06934,0.06934 -0.139648,0.149414 -0.189453,0.229492 -0.06055,0.08008 -0.100586,0.169922 -0.140625,0.260742 -0.03906,0.08984 -0.06934,0.189453 -0.08984,0.279297 -0.01953,0.100586 -0.0293,0.200196 -0.0293,0.290039 0,0.410157 0.15918,0.780274 0.449219,1.060547 0.280273,0.290039 0.650391,0.449219 1.050781,0.449219 0.199219,0 0.399414,-0.04004 0.580078,-0.11914 0.179688,-0.07031 0.339844,-0.180665 0.489258,-0.330079 0.280274,-0.280273 0.44043,-0.660156 0.44043,-1.060546 0,-0.08984 -0.02051,-0.189454 -0.03027,-0.29004 -0.01953,-0.08984 -0.0498,-0.189453 -0.08984,-0.279297 z"
       id="path8"
       inkscape:connector-curvature="0" /></g><text
     x="-19.893488"
     y="103.05545"
     font-size="5px"
     font-weight="bold"
     id="text12"
     style="font-weight:bold;font-size:5px;font-family:'Helvetica Neue', Helvetica, Arial-Unicode, Arial, Sans-serif;fill:#000000">Created by Artem  Kovyazin</text>
<text
     x="-19.893488"
     y="108.05545"
     font-size="5px"
     font-weight="bold"
     id="text14"
     style="font-weight:bold;font-size:5px;font-family:'Helvetica Neue', Helvetica, Arial-Unicode, Arial, Sans-serif;fill:#000000">from the Noun Project</text>
</svg>