<?xml version="1.0" encoding="UTF-8" standalone="no"?>
<svg
   xmlns:dc="http://purl.org/dc/elements/1.1/"
   xmlns:cc="http://creativecommons.org/ns#"
   xmlns:rdf="http://www.w3.org/1999/02/22-rdf-syntax-ns#"
   xmlns:svg="http://www.w3.org/2000/svg"
   xmlns="http://www.w3.org/2000/svg"
   xmlns:sodipodi="http://sodipodi.sourceforge.net/DTD/sodipodi-0.dtd"
   xmlns:inkscape="http://www.inkscape.org/namespaces/inkscape"
   viewBox="0 0 60 60"
   x="0px"
   y="0px"
   version="1.1"
   id="svg18"
   sodipodi:docname="construction.svg"
   width="60"
   height="60"
   inkscape:version="0.92.4 (5da689c313, 2019-01-14)">
  <metadata
     id="metadata24">
    <rdf:RDF>
      <cc:Work
         rdf:about="">
        <dc:format>image/svg+xml</dc:format>
        <dc:type
           rdf:resource="http://purl.org/dc/dcmitype/StillImage" />
        <dc:title></dc:title>
      </cc:Work>
    </rdf:RDF>
  </metadata>
  <defs
     id="defs22" />
  <sodipodi:namedview
     pagecolor="#ffffff"
     bordercolor="#666666"
     borderopacity="1"
     objecttolerance="10"
     gridtolerance="10"
     guidetolerance="10"
     inkscape:pageopacity="0"
     inkscape:pageshadow="2"
     inkscape:window-width="640"
     inkscape:window-height="480"
     id="namedview20"
     showgrid="false"
     fit-margin-top="0"
     fit-margin-left="0"
     fit-margin-right="0"
     fit-margin-bottom="0"
     inkscape:zoom="2.95"
     inkscape:cx="30"
     inkscape:cy="22"
     inkscape:window-x="0"
     inkscape:window-y="0"
     inkscape:window-maximized="0"
     inkscape:current-layer="svg18" />
  <g
     id="g12"
     transform="translate(-2,-2)">
    <path
       d="M 61,48 H 33 a 1,1 0 0 0 -1,1 v 12 a 1,1 0 0 0 1,1 h 28 a 1,1 0 0 0 1,-1 V 49 A 1,1 0 0 0 61,48 Z M 60,60 H 34 V 50 h 26 z"
       id="path2"
       inkscape:connector-curvature="0" />
    <path
       d="M 61,35 H 48 v -3.184 a 2.982,2.982 0 0 0 0,-5.632 V 22 h 11 a 1,1 0 0 0 1,-1 v -8 c 0,-0.016 -0.019,-0.144 -0.029,-0.194 a 0.965,0.965 0 0 0 -0.036,-0.143 c -0.005,-0.015 -0.045,-0.1 -0.06,-0.127 a 0.952,0.952 0 0 0 -0.078,-0.13 1.079,1.079 0 0 0 -0.1,-0.107 0.977,0.977 0 0 0 -0.107,-0.1 1.065,1.065 0 0 0 -0.13,-0.078 c -0.028,-0.015 -0.112,-0.055 -0.127,-0.06 A 0.948,0.948 0 0 0 59.189,12.025 C 59.144,12.019 59.016,12 59,12 H 51.136 L 15.268,2.037 A 0.969,0.969 0 0 0 15.012,2 H 15 C 14.983,2 14.967,2.007 14.95,2.008 A 0.968,0.968 0 0 0 14.742,2.039 C 14.71,2.048 14.681,2.059 14.651,2.07 a 0.933,0.933 0 0 0 -0.159,0.077 0.923,0.923 0 0 0 -0.084,0.054 c -0.016,0.011 -0.033,0.018 -0.049,0.031 l -12,10 c -0.012,0.01 -0.117,0.14 -0.159,0.2 A 1.021,1.021 0 0 0 2.1,12.581 1.954,1.954 0 0 0 2.009,12.959 C 2.009,12.974 2,12.987 2,13.002 v 8 c 0,0.016 0.006,0.03 0.007,0.046 a 0.945,0.945 0 0 0 0.022,0.148 0.965,0.965 0 0 0 0.036,0.143 c 0,0.015 0,0.031 0.011,0.046 0.013,0.03 0.034,0.053 0.049,0.081 a 0.952,0.952 0 0 0 0.078,0.13 1.079,1.079 0 0 0 0.1,0.107 0.977,0.977 0 0 0 0.107,0.1 1.065,1.065 0 0 0 0.13,0.078 c 0.028,0.015 0.051,0.036 0.081,0.049 0.012,0 0.025,0 0.037,0.007 A 0.987,0.987 0 0 0 3,22 h 7 v 39 c 0,0.016 0.006,0.03 0.007,0.046 a 0.945,0.945 0 0 0 0.022,0.148 0.965,0.965 0 0 0 0.036,0.143 c 0.005,0.015 0.005,0.031 0.011,0.046 0.006,0.015 0.034,0.053 0.049,0.081 a 0.952,0.952 0 0 0 0.078,0.13 1.079,1.079 0 0 0 0.1,0.107 0.977,0.977 0 0 0 0.107,0.1 1.065,1.065 0 0 0 0.13,0.078 c 0.028,0.015 0.051,0.036 0.081,0.049 0.012,0.005 0.025,0 0.037,0.007 A 0.987,0.987 0 0 0 11,62 h 8 a 1,1 0 0 0 1,-1 V 38 h 5 a 1,1 0 0 0 1,-1 V 22 h 20 v 4.184 a 2.982,2.982 0 0 0 0,5.632 V 35 H 33 a 1,1 0 0 0 -1,1 v 4 a 1,1 0 0 0 1,1 h 28 a 1,1 0 0 0 1,-1 V 36 A 1,1 0 0 0 61,35 Z M 21.414,20 26,15.414 V 20 Z m -8,0 L 18,15.414 V 20 Z M 43,12 H 19.677 l -3,-7.495 L 43.664,12 Z m -31,2 h 4.586 L 12,18.586 Z M 12.477,12 15,5.692 17.523,12 Z M 20,14 h 4.586 L 20,18.586 Z M 10.323,12 H 5.762 L 12.6,6.3 Z M 4,14 H 8.586 L 4,18.586 Z m 24,0 h 4.586 L 28,18.586 Z m 8,0 h 4.586 L 36,18.586 Z m 8,0 h 4.586 L 44,18.586 Z m 14,6 H 53.414 L 58,15.414 Z M 52,18.586 V 14 h 4.586 z M 10,15.414 V 20 H 5.414 Z M 18,52 H 13.414 L 18,47.414 Z M 12,50.586 V 46 h 4.586 z M 12,54 h 4.586 L 12,58.586 Z M 18,44 H 13.414 L 18,39.414 Z M 12,42.586 V 38 h 4.586 z M 18,60 H 13.414 L 18,55.414 Z M 19,36 H 12 V 22 h 2 v 11 a 1.01,1.01 0 0 0 0.077,0.382 1,1 0 0 0 0.541,0.541 A 1.01,1.01 0 0 0 15,34 h 9 v 2 z m 5,-4 h -2.586 l 1.293,-1.293 A 1,1 0 0 0 21.293,29.293 L 18.586,32 h -1.172 l 3.293,-3.293 A 1,1 0 0 0 19.293,27.293 L 16,30.586 V 22 h 8 z M 34,15.414 V 20 h -4.586 z m 8,0 V 20 h -4.586 z m 8,0 V 20 H 45.414 Z M 47,28 a 1,1 0 1 1 -1,1 1,1 0 0 1 1,-1 z M 60,39 H 34 v -2 h 26 z"
       id="path4"
       inkscape:connector-curvature="0" />
    <path
       d="m 37,58 h 4 a 1,1 0 0 0 1,-1 v -4 a 1,1 0 0 0 -1,-1 h -4 a 1,1 0 0 0 -1,1 v 4 a 1,1 0 0 0 1,1 z m 1,-4 h 2 v 2 h -2 z"
       id="path6"
       inkscape:connector-curvature="0" />
    <path
       d="m 45,58 h 4 a 1,1 0 0 0 1,-1 v -4 a 1,1 0 0 0 -1,-1 h -4 a 1,1 0 0 0 -1,1 v 4 a 1,1 0 0 0 1,1 z m 1,-4 h 2 v 2 h -2 z"
       id="path8"
       inkscape:connector-curvature="0" />
    <path
       d="m 53,58 h 4 a 1,1 0 0 0 1,-1 v -4 a 1,1 0 0 0 -1,-1 h -4 a 1,1 0 0 0 -1,1 v 4 a 1,1 0 0 0 1,1 z m 1,-4 h 2 v 2 h -2 z"
       id="path10"
       inkscape:connector-curvature="0" />
  </g>
  <text
     x="-2"
     y="77"
     font-size="5px"
     font-weight="bold"
     id="text14"
     style="font-weight:bold;font-size:5px;font-family:'Helvetica Neue', Helvetica, Arial-Unicode, Arial, Sans-serif;fill:#000000">Created by Smalllike</text>
  <text
     x="-2"
     y="82"
     font-size="5px"
     font-weight="bold"
     id="text16"
     style="font-weight:bold;font-size:5px;font-family:'Helvetica Neue', Helvetica, Arial-Unicode, Arial, Sans-serif;fill:#000000">from the Noun Project</text>
</svg>
