<?xml version="1.0" encoding="UTF-8" standalone="no"?>
<svg
   xmlns:dc="http://purl.org/dc/elements/1.1/"
   xmlns:cc="http://creativecommons.org/ns#"
   xmlns:rdf="http://www.w3.org/1999/02/22-rdf-syntax-ns#"
   xmlns:svg="http://www.w3.org/2000/svg"
   xmlns="http://www.w3.org/2000/svg"
   xmlns:sodipodi="http://sodipodi.sourceforge.net/DTD/sodipodi-0.dtd"
   xmlns:inkscape="http://www.inkscape.org/namespaces/inkscape"
   version="1.1"
   x="0px"
   y="0px"
   viewBox="0 0 26.049999 20"
   xml:space="preserve"
   id="svg32"
   sodipodi:docname="education.svg"
   width="26.049999"
   height="20"
   inkscape:version="0.92.4 (5da689c313, 2019-01-14)"><metadata
     id="metadata38"><rdf:RDF><cc:Work
         rdf:about=""><dc:format>image/svg+xml</dc:format><dc:type
           rdf:resource="http://purl.org/dc/dcmitype/StillImage" /><dc:title></dc:title></cc:Work></rdf:RDF></metadata><defs
     id="defs36" /><sodipodi:namedview
     pagecolor="#ffffff"
     bordercolor="#666666"
     borderopacity="1"
     objecttolerance="10"
     gridtolerance="10"
     guidetolerance="10"
     inkscape:pageopacity="0"
     inkscape:pageshadow="2"
     inkscape:window-width="640"
     inkscape:window-height="480"
     id="namedview34"
     showgrid="false"
     fit-margin-top="0"
     fit-margin-left="0"
     fit-margin-right="0"
     fit-margin-bottom="0"
     inkscape:zoom="5.9"
     inkscape:cx="13.025"
     inkscape:cy="6"
     inkscape:window-x="0"
     inkscape:window-y="0"
     inkscape:window-maximized="0"
     inkscape:current-layer="svg32" /><style
     type="text/css"
     id="style2">
	.st0{display:none;}
	.st1{display:inline;}
	.st2{fill:none;stroke:#CCCCCC;stroke-width:0.1;stroke-miterlimit:10;}
</style><g
     class="st0"
     id="g24"
     style="display:none"
     transform="translate(-2.975,-6)"><g
       class="st1"
       id="g22"
       style="display:inline"><rect
         x="2"
         y="2"
         class="st2"
         width="28"
         height="28"
         id="rect4"
         style="fill:none;stroke:#cccccc;stroke-width:0.1;stroke-miterlimit:10" /><line
         class="st2"
         x1="2"
         y1="30"
         x2="30"
         y2="2"
         id="line6"
         style="fill:none;stroke:#cccccc;stroke-width:0.1;stroke-miterlimit:10" /><line
         class="st2"
         x1="2"
         y1="2"
         x2="30"
         y2="30"
         id="line8"
         style="fill:none;stroke:#cccccc;stroke-width:0.1;stroke-miterlimit:10" /><rect
         x="6"
         y="6"
         class="st2"
         width="20"
         height="20"
         id="rect10"
         style="fill:none;stroke:#cccccc;stroke-width:0.1;stroke-miterlimit:10" /><line
         class="st2"
         x1="2"
         y1="16"
         x2="16"
         y2="2"
         id="line12"
         style="fill:none;stroke:#cccccc;stroke-width:0.1;stroke-miterlimit:10" /><line
         class="st2"
         x1="16"
         y1="2"
         x2="30"
         y2="16"
         id="line14"
         style="fill:none;stroke:#cccccc;stroke-width:0.1;stroke-miterlimit:10" /><line
         class="st2"
         x1="30"
         y1="16"
         x2="16"
         y2="30"
         id="line16"
         style="fill:none;stroke:#cccccc;stroke-width:0.1;stroke-miterlimit:10" /><line
         class="st2"
         x1="16"
         y1="30"
         x2="2"
         y2="16"
         id="line18"
         style="fill:none;stroke:#cccccc;stroke-width:0.1;stroke-miterlimit:10" /><circle
         class="st2"
         cx="16"
         cy="16"
         r="10"
         id="circle20"
         style="fill:none;stroke:#cccccc;stroke-width:0.1;stroke-miterlimit:10" /></g></g><path
     d="M 25.025,12.6 V 8.2 l 0.5,-0.2 c 0.7,-0.4 0.7,-1.4 0,-1.8 l -12.1,-6 C 13.225,0 13.225,0 13.025,0 c -0.2,0 -0.2,0 -0.4,0.1 l -12.1,6 c -0.7,0.4 -0.7,1.4 0,1.8 l 5.5,2.7 v 6.8 c 0,0.4 0.2,0.7 0.5,0.9 2.2,1.1 4.3,1.7 6.5,1.7 2.2,0 4.3,-0.6 6.5,-1.7 0.3,-0.2 0.5,-0.5 0.5,-0.9 v -6.8 l 4,-2 v 4 c -0.6,0.2 -1,0.7 -1,1.4 0,0.6 0.8,2.6 1,3.2 0.1,0.2 0.3,0.3 0.5,0.3 0.2,0 0.4,-0.1 0.5,-0.3 0.2,-0.6 1,-2.5 1,-3.2 0,-0.7 -0.4,-1.2 -1,-1.4 z m -6,4.8 c -2,1.1 -4,1.6 -6,1.6 -2,0 -4,-0.5 -6,-1.6 v -6.3 l 5.6,2.8 c 0.2,0.1 0.2,0.1 0.4,0.1 0.2,0 0.2,0 0.4,-0.1 l 5.6,-2.8 z m 4.1,-9.4 -10.1,5 -12.1,-6 12.1,-6 12.1,6 h -0.1 v 0 h -12 v 1 z m 1.4,7.6 c -0.3,-0.7 -0.5,-1.4 -0.5,-1.6 0,-0.3 0.2,-0.5 0.5,-0.5 0.3,0 0.5,0.2 0.5,0.5 0,0.2 -0.2,0.9 -0.5,1.6 z"
     id="path26"
     inkscape:connector-curvature="0" /><text
     x="-2.9749999"
     y="41"
     font-size="5px"
     font-weight="bold"
     id="text28"
     style="font-weight:bold;font-size:5px;font-family:'Helvetica Neue', Helvetica, Arial-Unicode, Arial, Sans-serif;fill:#000000">Created by I Putu Kharismayadi</text>
<text
     x="-2.9749999"
     y="46"
     font-size="5px"
     font-weight="bold"
     id="text30"
     style="font-weight:bold;font-size:5px;font-family:'Helvetica Neue', Helvetica, Arial-Unicode, Arial, Sans-serif;fill:#000000">from the Noun Project</text>
</svg>