<?xml version="1.0" encoding="UTF-8" standalone="no"?>
<svg
   xmlns:dc="http://purl.org/dc/elements/1.1/"
   xmlns:cc="http://creativecommons.org/ns#"
   xmlns:rdf="http://www.w3.org/1999/02/22-rdf-syntax-ns#"
   xmlns:svg="http://www.w3.org/2000/svg"
   xmlns="http://www.w3.org/2000/svg"
   xmlns:sodipodi="http://sodipodi.sourceforge.net/DTD/sodipodi-0.dtd"
   xmlns:inkscape="http://www.inkscape.org/namespaces/inkscape"
   data-name="Layer 1"
   viewBox="0 0 128.14568 94.000008"
   x="0px"
   y="0px"
   version="1.1"
   id="svg16"
   sodipodi:docname="electronics.svg"
   width="128.14568"
   height="94.000008"
   inkscape:version="0.92.4 (5da689c313, 2019-01-14)">
  <metadata
     id="metadata22">
    <rdf:RDF>
      <cc:Work
         rdf:about="">
        <dc:format>image/svg+xml</dc:format>
        <dc:type
           rdf:resource="http://purl.org/dc/dcmitype/StillImage" />
        <dc:title>Miscellaneous 38 final</dc:title>
      </cc:Work>
    </rdf:RDF>
  </metadata>
  <defs
     id="defs20" />
  <sodipodi:namedview
     pagecolor="#ffffff"
     bordercolor="#666666"
     borderopacity="1"
     objecttolerance="10"
     gridtolerance="10"
     guidetolerance="10"
     inkscape:pageopacity="0"
     inkscape:pageshadow="2"
     inkscape:window-width="640"
     inkscape:window-height="480"
     id="namedview18"
     showgrid="false"
     fit-margin-top="0"
     fit-margin-left="0"
     fit-margin-right="0"
     fit-margin-bottom="0"
     inkscape:zoom="1.475"
     inkscape:cx="64.14567"
     inkscape:cy="31.000002"
     inkscape:window-x="0"
     inkscape:window-y="0"
     inkscape:window-maximized="0"
     inkscape:current-layer="svg16" />
  <title
     id="title2">Miscellaneous 38 final</title>
  <path
     d="m 120.14567,15.170002 a 8,8 0 0 0 -7.68,5.83 h -9.32 a 2,2 0 0 0 -1.41,0.59 l -13.42,13.41 h -17.17 a 2,2 0 0 0 -2,2 v 19 h -19 v -27 h 32 a 2,2 0 0 0 1.46,-0.63 l 14,-14.89 a 2,2 0 0 0 -1.46,-3.37 h -43.48 a 2,2 0 0 0 -1.43,0.6 l -13.93,14.29 h -21.36 a 8,8 0 0 0 -7.8,-6.3 8.07,8.07 0 1 0 7.68,10.3 h 22.32 a 2,2 0 0 0 1.43,-0.6 l 13.93,-14.29 h 38 l -10.22,10.89 h -33.14 a 2,2 0 0 0 -2,2 v 16 h -18.26 a 8.07,8.07 0 1 0 0,4 h 18.26 v 11 a 2,2 0 0 0 2,2 h 21 v 11 a 2,2 0 0 0 2,2 h 19.11 l 5.4,6 h -40.72 l -13.43,-12.47 a 2,2 0 0 0 -1.36,-0.53 h -24.32 a 8.07,8.07 0 1 0 0.12,4 h 23.41 l 13.43,12.47 a 2,2 0 0 0 1.36,0.53 h 46 a 2,2 0 0 0 1.49,-3.34 l -9,-10 a 2,2 0 0 0 -1.49,-0.66 h -18 v -30 h 16 a 2,2 0 0 0 1.41,-0.59 l 13.42,-13.41 h 8.37 a 8,8 0 1 0 7.8,-9.83 z m -112,15.66 a 4.07,4.07 0 1 1 4,-4.07 4,4 0 0 1 -4,4.07 z m 12,18.24 a 4.07,4.07 0 1 1 4,-4.07 4,4 0 0 1 -4,4.07 z m -12,23.23 a 4.07,4.07 0 1 1 4,-4.07 4,4 0 0 1 -4,4.07 z m 112,-45 a 4.07,4.07 0 1 1 4,-4.07 4,4 0 0 1 -4,4.07 z"
     id="path4"
     inkscape:connector-curvature="0" />
  <path
     d="m 90.14567,49.000002 a 2,2 0 0 0 0,-4 h -10 a 2,2 0 0 0 -2,2 v 14 a 2,2 0 0 0 2,2 h 15.09 l 6.4,7.32 a 2,2 0 0 0 1.51,0.68 h 7.32 a 8.07,8.07 0 1 0 -0.11,-4 h -6.29 l -6.4,-7.32 a 2,2 0 0 0 -1.52,-0.68 h -14 v -10 z m 28,15.71 a 4.07,4.07 0 1 1 -4,4.07 4,4 0 0 1 4,-4.07 z"
     id="path6"
     inkscape:connector-curvature="0" />
  <path
     d="m 126.14567,2.4073688e-6 h -76 A 2,2 0 0 0 48.77567,0.54000241 l -15.42,14.45999959 h -8.39 l -6.42,-6.3299996 a 2,2 0 0 0 -1.4,-0.58 h -15 a 2,2 0 0 0 0,3.9999996 h 14.18 l 6.42,6.33 a 2,2 0 0 0 1.4,0.58 h 10 a 2,2 0 0 0 1.37,-0.54 l 15.42,-14.4599996 h 75.21 a 2,2 0 0 0 0,-3.9999999926312 z"
     id="path8"
     inkscape:connector-curvature="0" />
  <path
     d="m 126.14567,90.000002 h -75.21 l -15.42,-14.46 a 2,2 0 0 0 -1.37,-0.54 h -10 a 2,2 0 0 0 -1.41,0.58 l -6.42,6.33 h -14.17 a 2,2 0 0 0 0,4 h 15 a 2,2 0 0 0 1.41,-0.58 l 6.41,-6.33 h 8.39 l 15.42,14.46 a 2,2 0 0 0 1.37,0.54 h 76 a 2,2 0 0 0 0,-4 z"
     id="path10"
     inkscape:connector-curvature="0" />
  <text
     x="0.14567003"
     y="126"
     font-size="5px"
     font-weight="bold"
     id="text12"
     style="font-weight:bold;font-size:5px;font-family:'Helvetica Neue', Helvetica, Arial-Unicode, Arial, Sans-serif;fill:#000000">Created by priyanka</text>
  <text
     x="0.14567003"
     y="131"
     font-size="5px"
     font-weight="bold"
     id="text14"
     style="font-weight:bold;font-size:5px;font-family:'Helvetica Neue', Helvetica, Arial-Unicode, Arial, Sans-serif;fill:#000000">from the Noun Project</text>
</svg>
