<?xml version="1.0" encoding="UTF-8" standalone="no"?>
<svg
   xmlns:dc="http://purl.org/dc/elements/1.1/"
   xmlns:cc="http://creativecommons.org/ns#"
   xmlns:rdf="http://www.w3.org/1999/02/22-rdf-syntax-ns#"
   xmlns:svg="http://www.w3.org/2000/svg"
   xmlns="http://www.w3.org/2000/svg"
   xmlns:sodipodi="http://sodipodi.sourceforge.net/DTD/sodipodi-0.dtd"
   xmlns:inkscape="http://www.inkscape.org/namespaces/inkscape"
   version="1.1"
   x="0px"
   y="0px"
   viewBox="0 0 62 51"
   xml:space="preserve"
   id="svg12"
   sodipodi:docname="food.svg"
   width="62"
   height="51"
   inkscape:version="0.92.4 (5da689c313, 2019-01-14)"><metadata
     id="metadata18"><rdf:RDF><cc:Work
         rdf:about=""><dc:format>image/svg+xml</dc:format><dc:type
           rdf:resource="http://purl.org/dc/dcmitype/StillImage" /><dc:title></dc:title></cc:Work></rdf:RDF></metadata><defs
     id="defs16" /><sodipodi:namedview
     pagecolor="#ffffff"
     bordercolor="#666666"
     borderopacity="1"
     objecttolerance="10"
     gridtolerance="10"
     guidetolerance="10"
     inkscape:pageopacity="0"
     inkscape:pageshadow="2"
     inkscape:window-width="640"
     inkscape:window-height="480"
     id="namedview14"
     showgrid="false"
     fit-margin-top="0"
     fit-margin-left="0"
     fit-margin-right="0"
     fit-margin-bottom="0"
     inkscape:zoom="2.95"
     inkscape:cx="31"
     inkscape:cy="23"
     inkscape:window-x="0"
     inkscape:window-y="0"
     inkscape:window-maximized="0"
     inkscape:current-layer="svg12" /><g
     id="g6"
     transform="translate(-1,-12)"><path
       d="m 63,44.465 c 0,-1.212 -0.472,-2.351 -1.328,-3.207 L 60.414,40 61.672,38.742 C 62.528,37.886 63,36.747 63,35.535 63,33.034 60.966,31 58.465,31 c -1.211,0 -2.35,0.472 -3.207,1.328 L 52.586,35 H 49 v -2.535 l -3.899,-2.6 C 41.499,27.464 38.27,24.561 35.502,21.239 31.654,16.623 26.28,13.489 20.368,12.414 18.855,12.139 17.31,12 15.774,12 H 9 C 4.439,12 1,20.168 1,31 1,38.642 2.716,44.943 5.326,48 H 1 v 8 h 3.486 l 5,7 h 45.029 l 5,-7 H 63 V 48 H 61.271 C 62.316,47.169 63,45.901 63,44.465 Z M 53.414,37 56.672,33.742 C 57.15,33.264 57.788,33 58.465,33 59.862,33 61,34.138 61,35.535 c 0,0.678 -0.264,1.314 -0.742,1.793 L 57.586,40 60.258,42.672 C 60.736,43.15 61,43.787 61,44.465 61,45.862 59.862,47 58.465,47 57.787,47 57.151,46.736 56.672,46.258 L 53.414,43 H 49 V 42 37 Z M 20.011,14.382 c 5.451,0.991 10.407,3.881 13.954,8.138 2.892,3.47 6.265,6.501 10.026,9.01 L 47,33.535 V 42 h -1 c -0.119,0 -0.235,0.012 -0.352,0.018 C 44.816,39.651 42.565,38 40,38 37.435,38 35.184,39.651 34.352,42.018 34.235,42.012 34.119,42 34,42 h -1.08 c -0.058,-0.405 -0.147,-0.8 -0.272,-1.179 0.774,-0.336 1.523,-0.733 2.235,-1.207 l 2.672,-1.781 -1.109,-1.664 -2.672,1.781 c -0.641,0.427 -1.317,0.782 -2.016,1.079 C 30.492,37.201 28.385,36 26,36 22.438,36 19.495,38.677 19.061,42.123 17.309,42.548 16,44.119 16,46 c 0,0.732 0.212,1.409 0.556,2 H 12.673 C 15.284,44.943 17,38.642 17,31 17,23.358 15.284,17.057 12.674,14 h 3.101 c 1.415,0 2.841,0.128 4.236,0.382 z M 42,48 H 41.101 C 41.566,45.721 43.585,44 46,44 h 0.899 C 46.435,46.279 44.415,48 42,48 Z M 18,46 c 0,-1.103 0.897,-2 2,-2 1.103,0 2,0.897 2,2 0,1.103 -0.897,2 -2,2 -1.103,0 -2,-0.897 -2,-2 z m 5.721,1.44 C 23.895,46.992 24,46.509 24,46 24,44.172 22.761,42.644 21.084,42.168 21.483,39.808 23.528,38 26,38 c 1.484,0 2.804,0.663 3.721,1.693 C 28.834,39.895 27.923,40 27,40 v 2 c 1.275,0 2.53,-0.178 3.742,-0.509 C 30.895,41.97 31,42.471 31,43 c 0,2.757 -2.243,5 -5,5 -0.801,0 -1.576,-0.198 -2.279,-0.56 z M 32,46.587 c 0.311,0.517 0.682,0.994 1.111,1.413 H 30.89 C 31.318,47.58 31.689,47.104 32,46.587 Z M 33.101,44 H 34 c 2.415,0 4.435,1.721 4.899,4 H 38 c -2.415,0 -4.435,-1.721 -4.899,-4 z m 3.237,-1.59 C 36.962,40.979 38.388,40 40,40 c 1.612,0 3.038,0.979 3.662,2.41 C 42.121,42.959 40.83,44.03 40,45.413 39.17,44.03 37.879,42.959 36.338,42.41 Z M 3,31 C 3,20.981 6.162,14 9,14 c 2.838,0 6,6.981 6,17 C 15,41.019 11.838,48 9,48 6.162,48 3,41.019 3,31 Z m 58,23 h -6 v 2 h 2.057 l -3.572,5 H 10.515 L 6.943,56 H 53 V 54 H 3 v -4 h 35 1 2 1 19 z M 46.889,48 c 0.839,-0.82 1.471,-1.848 1.816,-3 h 3.881 l 2.672,2.672 c 0.123,0.123 0.265,0.221 0.399,0.328 z"
       id="path2"
       inkscape:connector-curvature="0" /><path
       d="m 9,18 c -3.157,0 -4,8.171 -4,13 0,4.828 0.843,13 4,13 3.157,0 4,-8.172 4,-13 C 13,26.171 12.157,18 9,18 Z M 9,41.969 C 8.246,41.406 7,37.466 7,31 7,24.534 8.246,20.594 9,20.031 9.754,20.593 11,24.533 11,31 11,37.466 9.754,41.406 9,41.969 Z"
       id="path4"
       inkscape:connector-curvature="0" /></g><text
     x="-1"
     y="67"
     font-size="5px"
     font-weight="bold"
     id="text8"
     style="font-weight:bold;font-size:5px;font-family:'Helvetica Neue', Helvetica, Arial-Unicode, Arial, Sans-serif;fill:#000000">Created by Eucalyp</text>
<text
     x="-1"
     y="72"
     font-size="5px"
     font-weight="bold"
     id="text10"
     style="font-weight:bold;font-size:5px;font-family:'Helvetica Neue', Helvetica, Arial-Unicode, Arial, Sans-serif;fill:#000000">from the Noun Project</text>
</svg>