<?xml version="1.0" encoding="UTF-8" standalone="no"?>
<svg
   xmlns:dc="http://purl.org/dc/elements/1.1/"
   xmlns:cc="http://creativecommons.org/ns#"
   xmlns:rdf="http://www.w3.org/1999/02/22-rdf-syntax-ns#"
   xmlns:svg="http://www.w3.org/2000/svg"
   xmlns="http://www.w3.org/2000/svg"
   xmlns:sodipodi="http://sodipodi.sourceforge.net/DTD/sodipodi-0.dtd"
   xmlns:inkscape="http://www.inkscape.org/namespaces/inkscape"
   version="1.1"
   x="0px"
   y="0px"
   viewBox="0 0 60 57"
   xml:space="preserve"
   id="svg8"
   sodipodi:docname="housekeeping.svg"
   width="60"
   height="57"
   inkscape:version="0.92.4 (5da689c313, 2019-01-14)"><metadata
     id="metadata14"><rdf:RDF><cc:Work
         rdf:about=""><dc:format>image/svg+xml</dc:format><dc:type
           rdf:resource="http://purl.org/dc/dcmitype/StillImage" /><dc:title></dc:title></cc:Work></rdf:RDF></metadata><defs
     id="defs12" /><sodipodi:namedview
     pagecolor="#ffffff"
     bordercolor="#666666"
     borderopacity="1"
     objecttolerance="10"
     gridtolerance="10"
     guidetolerance="10"
     inkscape:pageopacity="0"
     inkscape:pageshadow="2"
     inkscape:window-width="640"
     inkscape:window-height="480"
     id="namedview10"
     showgrid="false"
     fit-margin-top="0"
     fit-margin-left="0"
     fit-margin-right="0"
     fit-margin-bottom="0"
     inkscape:zoom="2.95"
     inkscape:cx="30"
     inkscape:cy="22"
     inkscape:window-x="0"
     inkscape:window-y="0"
     inkscape:window-maximized="0"
     inkscape:current-layer="svg8" /><path
     d="M 53.014,1.836 51.153,13 H 50 V 9 C 50,8.447 49.552,8 49,8 H 31 c -0.552,0 -1,0.447 -1,1 v 4 h -3 c -0.552,0 -1,0.447 -1,1 v 9 H 23 V 12 h 1 c 1.654,0 3,-1.346 3,-3 V 7.163 L 28.949,1.317 C 29.051,1.012 28.999,0.676 28.811,0.416 28.623,0.156 28.321,0 28,0 H 16 C 15.679,0 15.377,0.154 15.189,0.415 15.001,0.676 14.95,1.012 15.051,1.316 L 17,7.163 V 9 c 0,1.654 1.346,3 3,3 h 1 v 11 h -2 v -5 c 0,-0.553 -0.448,-1 -1,-1 h -6 c -0.552,0 -1,0.447 -1,1 v 5 H 9.105 l 0.89,-8.9 C 10.023,13.819 9.931,13.538 9.741,13.329 9.552,13.119 9.283,13 9,13 H 7 V 9 C 7,8.447 6.552,8 6,8 H 1 C 0.448,8 0,8.447 0,9 v 2 h 2 v -1 h 3 v 3 H 3 C 2.717,13 2.448,13.119 2.259,13.329 2.069,13.538 1.977,13.818 2.005,14.1 L 2.895,23 H 1 c -0.552,0 -1,0.447 -1,1 v 4 c 0,0.553 0.448,1 1,1 h 20 v 16 h -3.847 l 1.835,-12.843 c 0,-10e-4 0.001,-0.002 0.001,-0.003 v 0 l 0.002,-0.012 C 19.032,31.855 18.947,31.564 18.757,31.345 18.567,31.126 18.29,31 18,31 H 4 c -0.29,0 -0.565,0.126 -0.755,0.345 -0.19,0.219 -0.275,0.51 -0.234,0.797 l 0.002,0.012 v 0 c 0,10e-4 10e-4,0.002 10e-4,0.003 L 4.847,45 H 2 c -0.459,0 -0.859,0.312 -0.97,0.758 l -1,4 C -0.045,50.057 0.023,50.373 0.212,50.615 0.401,50.858 0.692,51 1,51 H 5.556 C 5.212,51.591 5,52.268 5,53 c 0,2.206 1.794,4 4,4 2.206,0 4,-1.794 4,-4 0,-0.732 -0.212,-1.409 -0.556,-2 H 41.557 C 41.212,51.591 41,52.268 41,53 c 0,2.206 1.794,4 4,4 2.206,0 4,-1.794 4,-4 0,-0.732 -0.212,-1.409 -0.556,-2 H 53 c 0.459,0 0.859,-0.312 0.97,-0.758 l 1,-4 C 55.045,45.943 54.977,45.627 54.788,45.385 54.599,45.142 54.308,45 54,45 H 47.098 L 49.91,15 H 52 c 0.489,0 0.906,-0.354 0.986,-0.836 L 54.847,3 H 60 V 1 H 54 C 53.511,1 53.094,1.354 53.014,1.836 Z M 26.613,2 25.28,6 H 18.721 L 17.388,2 Z M 19,9 V 8 h 6 v 1 c 0,0.552 -0.449,1 -1,1 H 20 C 19.449,10 19,9.552 19,9 Z m 13,1 h 16 v 3 H 32 Z m -4,5 h 2.089 l 2.812,30 H 28 V 28 24 Z m -2,10 v 2 H 23 V 25 Z M 13,19 h 4 v 4 H 13 Z M 4.105,15 h 3.79 l -0.8,8 H 4.905 Z M 2,27 v -2 h 2 4 4 6 3 v 2 z m 21,2 h 3 v 16 h -3 z m -6.295,4 C 15.839,35.344 13.568,37 11,37 8.432,37 6.161,35.344 5.295,33 Z M 5.727,37.017 C 7.158,38.254 9.013,39 11,39 c 1.987,0 3.842,-0.746 5.273,-1.983 L 15.133,45 H 6.867 Z M 11,53 c 0,1.103 -0.897,2 -2,2 -1.103,0 -2,-0.897 -2,-2 0,-1.103 0.897,-2 2,-2 1.103,0 2,0.897 2,2 z m 36,0 c 0,1.103 -0.897,2 -2,2 -1.103,0 -2,-0.897 -2,-2 0,-1.103 0.897,-2 2,-2 1.103,0 2,0.897 2,2 z m 5.219,-4 H 2.281 l 0.5,-2 H 6 16 34 46 52.719 Z m -7.13,-4 H 34.911 L 32.099,15 h 15.804 z"
     id="path2"
     inkscape:connector-curvature="0" /><text
     x="-2"
     y="74"
     font-size="5px"
     font-weight="bold"
     id="text4"
     style="font-weight:bold;font-size:5px;font-family:'Helvetica Neue', Helvetica, Arial-Unicode, Arial, Sans-serif;fill:#000000">Created by Massupa  Kaewgahya</text>
<text
     x="-2"
     y="79"
     font-size="5px"
     font-weight="bold"
     id="text6"
     style="font-weight:bold;font-size:5px;font-family:'Helvetica Neue', Helvetica, Arial-Unicode, Arial, Sans-serif;fill:#000000">from the Noun Project</text>
</svg>