<?xml version="1.0" encoding="UTF-8" standalone="no"?>
<svg
   xmlns:dc="http://purl.org/dc/elements/1.1/"
   xmlns:cc="http://creativecommons.org/ns#"
   xmlns:rdf="http://www.w3.org/1999/02/22-rdf-syntax-ns#"
   xmlns:svg="http://www.w3.org/2000/svg"
   xmlns="http://www.w3.org/2000/svg"
   xmlns:sodipodi="http://sodipodi.sourceforge.net/DTD/sodipodi-0.dtd"
   xmlns:inkscape="http://www.inkscape.org/namespaces/inkscape"
   version="1.1"
   x="0px"
   y="0px"
   viewBox="0 0 67.477318 55.585167"
   xml:space="preserve"
   id="svg20"
   sodipodi:docname="pet.svg"
   width="67.477318"
   height="55.585167"
   inkscape:version="0.92.4 (5da689c313, 2019-01-14)"><metadata
     id="metadata26"><rdf:RDF><cc:Work
         rdf:about=""><dc:format>image/svg+xml</dc:format><dc:type
           rdf:resource="http://purl.org/dc/dcmitype/StillImage" /><dc:title></dc:title></cc:Work></rdf:RDF></metadata><defs
     id="defs24" /><sodipodi:namedview
     pagecolor="#ffffff"
     bordercolor="#666666"
     borderopacity="1"
     objecttolerance="10"
     gridtolerance="10"
     guidetolerance="10"
     inkscape:pageopacity="0"
     inkscape:pageshadow="2"
     inkscape:window-width="640"
     inkscape:window-height="480"
     id="namedview22"
     showgrid="false"
     fit-margin-top="0"
     fit-margin-left="0"
     fit-margin-right="0"
     fit-margin-bottom="0"
     inkscape:zoom="1.888"
     inkscape:cx="33.719212"
     inkscape:cy="14.547665"
     inkscape:window-x="0"
     inkscape:window-y="0"
     inkscape:window-maximized="0"
     inkscape:current-layer="svg20" /><style
     type="text/css"
     id="style2">
	.st0{fill:none;}
</style><g
     id="g14"
     transform="translate(-16.280788,-21.4625)"><path
       d="M 62.3,54.1 C 61.1,53.4 60.2,52.3 59.8,51 58.4,46.4 54.5,43.4 50,43.4 c -4.5,0 -8.4,3.1 -9.8,7.6 -0.4,1.3 -1.3,2.4 -2.5,3.1 -7,4 -8,12 -8,16.4 0,3 2.1,5.4 5.5,6.2 4.7,1.2 11.1,-0.7 13.9,-5.8 0.3,-0.5 0.7,-0.6 0.9,-0.6 0.2,0 0.7,0.1 1,0.6 2.2,4.1 6.8,6.1 11,6.1 1,0 2,-0.1 2.9,-0.3 3.4,-0.9 5.5,-3.2 5.5,-6.2 C 70.3,66 69.3,58.1 62.3,54.1 Z m 1.8,19.7 c -3.5,0.9 -8.5,-0.5 -10.5,-4.3 -0.7,-1.3 -2.1,-2.2 -3.6,-2.2 -1.5,0 -2.9,0.8 -3.6,2.2 -2,3.7 -7,5.1 -10.5,4.2 -1.2,-0.3 -3.2,-1.1 -3.2,-3.3 0,-3.8 0.8,-10.5 6.5,-13.8 1.9,-1.1 3.2,-2.8 3.9,-4.8 1,-3.3 3.8,-5.5 6.9,-5.5 3.1,0 5.9,2.2 6.9,5.5 0.6,2 2,3.8 3.9,4.8 5.7,3.2 6.5,10 6.5,13.8 0,2.2 -2,3.1 -3.2,3.4 z"
       id="path4"
       inkscape:connector-curvature="0" /><path
       d="M 35.9,47 C 35.5,44.5 34.2,42 32.1,39.9 27.8,35.6 21.6,34.7 18.3,38 c -1.7,1.7 -2.3,4.1 -1.9,6.8 0.4,2.5 1.7,5 3.8,7.1 2.5,2.5 5.7,3.9 8.6,3.9 2,0 3.9,-0.7 5.2,-2 1.6,-1.8 2.3,-4.2 1.9,-6.8 z m -4.1,4.6 c -2.1,2.1 -6.5,1.2 -9.6,-1.9 -1.6,-1.6 -2.6,-3.5 -2.9,-5.4 -0.3,-1.7 0.1,-3.2 1.1,-4.2 0.8,-0.8 1.9,-1.2 3.1,-1.2 2.1,0 4.5,1.1 6.5,3 1.6,1.6 2.6,3.5 2.9,5.4 0.3,1.8 -0.1,3.3 -1.1,4.3 z"
       id="path6"
       inkscape:connector-curvature="0" /><path
       d="m 81.7,38 c -3.3,-3.3 -9.5,-2.5 -13.8,1.9 -2,2 -3.4,4.5 -3.8,7.1 -0.4,2.7 0.3,5.1 1.9,6.8 1.4,1.4 3.2,2 5.2,2 2.9,0 6.1,-1.3 8.6,-3.9 2,-2 3.4,-4.5 3.8,-7.1 0.5,-2.7 -0.2,-5.1 -1.9,-6.8 z m -1,6.3 c -0.3,1.9 -1.3,3.8 -2.9,5.4 -3.1,3.1 -7.5,3.9 -9.6,1.9 -1,-1 -1.3,-2.4 -1.1,-4.2 0.3,-1.9 1.3,-3.8 2.9,-5.4 1.9,-1.9 4.4,-3 6.5,-3 1.2,0 2.3,0.4 3.1,1.2 1,0.9 1.3,2.4 1.1,4.1 z"
       id="path8"
       inkscape:connector-curvature="0" /><path
       d="m 37.4,42.4 c 1.2,0.6 2.4,1 3.7,1 0.7,0 1.5,-0.1 2.2,-0.3 4.5,-1.5 6.9,-7.4 5.3,-13.2 -0.9,-3.2 -2.9,-5.9 -5.4,-7.3 -1.9,-1 -4,-1.2 -5.9,-0.6 -4.5,1.5 -6.9,7.4 -5.3,13.2 0.8,3.2 2.8,5.8 5.4,7.2 z m 0.8,-17.6 c 0.4,-0.1 0.9,-0.2 1.3,-0.2 0.9,0 1.7,0.3 2.3,0.6 1.8,1 3.3,3 3.9,5.4 1.1,4.2 -0.4,8.5 -3.4,9.5 v 0 c -1.4,0.5 -2.7,0 -3.5,-0.4 -1.8,-1 -3.3,-3 -3.9,-5.4 -1.2,-4.2 0.3,-8.5 3.3,-9.5 z"
       id="path10"
       inkscape:connector-curvature="0" /><path
       d="m 56.8,43 c 0.7,0.2 1.4,0.3 2.2,0.3 1.2,0 2.5,-0.3 3.7,-1 2.5,-1.4 4.5,-4 5.4,-7.3 1.6,-5.8 -0.8,-11.7 -5.3,-13.2 -1.9,-0.6 -4,-0.4 -5.9,0.6 -2.5,1.4 -4.5,4 -5.4,7.3 -1.7,5.9 0.7,11.8 5.3,13.3 z M 54.3,30.6 c 0.7,-2.4 2.1,-4.5 3.9,-5.4 0.6,-0.3 1.4,-0.6 2.3,-0.6 0.4,0 0.8,0.1 1.3,0.2 3,1 4.5,5.3 3.4,9.5 -0.7,2.4 -2.1,4.5 -3.9,5.4 -0.8,0.4 -2.1,0.9 -3.5,0.4 v 0 c -3.1,-0.9 -4.6,-5.3 -3.5,-9.5 z"
       id="path12"
       inkscape:connector-curvature="0" /></g><text
     x="-16.280788"
     y="93.537498"
     font-size="5px"
     font-weight="bold"
     id="text16"
     style="font-weight:bold;font-size:5px;font-family:'Helvetica Neue', Helvetica, Arial-Unicode, Arial, Sans-serif;fill:#000000">Created by Ker'is</text>
<text
     x="-16.280788"
     y="98.537498"
     font-size="5px"
     font-weight="bold"
     id="text18"
     style="font-weight:bold;font-size:5px;font-family:'Helvetica Neue', Helvetica, Arial-Unicode, Arial, Sans-serif;fill:#000000">from the Noun Project</text>
</svg>