<?xml version="1.0" encoding="UTF-8" standalone="no"?>
<svg
   xmlns:dc="http://purl.org/dc/elements/1.1/"
   xmlns:cc="http://creativecommons.org/ns#"
   xmlns:rdf="http://www.w3.org/1999/02/22-rdf-syntax-ns#"
   xmlns:svg="http://www.w3.org/2000/svg"
   xmlns="http://www.w3.org/2000/svg"
   xmlns:sodipodi="http://sodipodi.sourceforge.net/DTD/sodipodi-0.dtd"
   xmlns:inkscape="http://www.inkscape.org/namespaces/inkscape"
   version="1.1"
   x="0px"
   y="0px"
   viewBox="0 0 64.000412 64"
   xml:space="preserve"
   id="svg56"
   sodipodi:docname="recreational.svg"
   width="64.000412"
   height="64"
   inkscape:version="0.92.4 (5da689c313, 2019-01-14)"><metadata
     id="metadata62"><rdf:RDF><cc:Work
         rdf:about=""><dc:format>image/svg+xml</dc:format><dc:type
           rdf:resource="http://purl.org/dc/dcmitype/StillImage" /><dc:title></dc:title></cc:Work></rdf:RDF></metadata><defs
     id="defs60" /><sodipodi:namedview
     pagecolor="#ffffff"
     bordercolor="#666666"
     borderopacity="1"
     objecttolerance="10"
     gridtolerance="10"
     guidetolerance="10"
     inkscape:pageopacity="0"
     inkscape:pageshadow="2"
     inkscape:window-width="640"
     inkscape:window-height="480"
     id="namedview58"
     showgrid="false"
     fit-margin-top="0"
     fit-margin-left="0"
     fit-margin-right="0"
     fit-margin-bottom="0"
     inkscape:zoom="2.95"
     inkscape:cx="32"
     inkscape:cy="24"
     inkscape:window-x="0"
     inkscape:window-y="0"
     inkscape:window-maximized="0"
     inkscape:current-layer="svg56" /><path
     d="M 59,36 H 56 V 24 c 0,-1.13 -0.391,-2.162 -1.026,-3 H 63 c 0.347,0 0.668,-0.18 0.851,-0.474 0.182,-0.295 0.199,-0.663 0.044,-0.973 l -7,-14 C 56.725,5.214 56.379,5 56,5 H 43 V 3 C 43,1.346 41.654,0 40,0 H 31 C 29.346,0 28,1.346 28,3 V 5 H 25 V 4 C 25,2.346 23.654,1 22,1 H 18 C 16.346,1 15,2.346 15,4 V 5 H 12 V 2 H 10 V 5 H 6 V 2 H 4 V 5.101 C 1.721,5.566 0,7.586 0,10 v 35 8 c 0,2.757 2.243,5 5,5 h 1.08 c 0.488,3.387 3.401,6 6.92,6 3.519,0 6.432,-2.613 6.92,-6 h 3.08 10 3 1 3.08 c 0.488,3.387 3.401,6 6.92,6 3.519,0 6.432,-2.613 6.92,-6 H 59 c 2.757,0 5,-2.243 5,-5 v -6 -6 c 0,-2.757 -2.243,-5 -5,-5 z M 30,3 c 0,-0.551 0.449,-1 1,-1 h 9 c 0.551,0 1,0.449 1,1 V 5 H 30 Z M 17,4 c 0,-0.551 0.449,-1 1,-1 h 4 c 0.551,0 1,0.449 1,1 v 1 h -6 z m -4,58 c -2.757,0 -5,-2.243 -5,-5 0,-2.757 2.243,-5 5,-5 2.757,0 5,2.243 5,5 0,2.757 -2.243,5 -5,5 z M 24,56 V 28 h 8 v 28 z m 10,0 V 27 c 0,-0.552 -0.448,-1 -1,-1 H 23 c -0.552,0 -1,0.448 -1,1 V 56 H 19.92 C 19.432,52.613 16.519,50 13,50 9.481,50 6.568,52.613 6.08,56 H 5 C 3.346,56 2,54.654 2,53 V 45 17 H 4 V 15 H 2 V 10 C 2,8.346 3.346,7 5,7 h 24 13 13.382 l 6,12 H 51 37 c -0.552,0 -1,0.448 -1,1 v 25 11 z m 13,6 c -2.757,0 -5,-2.243 -5,-5 0,-2.757 2.243,-5 5,-5 2.757,0 5,2.243 5,5 0,2.757 -2.243,5 -5,5 z M 59,56 H 53.92 C 53.432,52.613 50.519,50 47,50 c -3.519,0 -6.432,2.613 -6.92,6 H 38 V 45 21 h 13 c 1.654,0 3,1.346 3,3 v 13 c 0,0.552 0.448,1 1,1 h 4 c 1.654,0 3,1.346 3,3 v 5 h -2 c -2.206,0 -4,1.794 -4,4 0,2.206 1.794,4 4,4 h 1.816 C 61.402,55.161 60.302,56 59,56 Z m 3,-4 h -2 c -1.103,0 -2,-0.897 -2,-2 0,-1.103 0.897,-2 2,-2 h 2 z"
     id="path2"
     inkscape:connector-curvature="0" /><path
     d="M 51,23 H 41 c -0.552,0 -1,0.448 -1,1 v 9 c 0,0.552 0.448,1 1,1 h 10 c 0.552,0 1,-0.448 1,-1 v -9 c 0,-0.552 -0.448,-1 -1,-1 z m -1,9 h -8 v -7 h 8 z"
     id="path4"
     inkscape:connector-curvature="0" /><rect
     x="40"
     y="36"
     width="4"
     height="2"
     id="rect6" /><path
     d="m 43,17 h 13 c 0.347,0 0.668,-0.18 0.851,-0.474 0.182,-0.295 0.199,-0.663 0.044,-0.973 l -3,-6 C 53.725,9.214 53.379,9 53,9 H 43 c -0.552,0 -1,0.448 -1,1 v 6 c 0,0.552 0.448,1 1,1 z m 1,-6 h 8.382 l 2,4 H 44 Z"
     id="path8"
     inkscape:connector-curvature="0" /><path
     d="m 19,26 h -5 c -0.552,0 -1,0.448 -1,1 v 6 c 0,0.552 0.448,1 1,1 h 5 c 0.552,0 1,-0.448 1,-1 v -6 c 0,-0.552 -0.448,-1 -1,-1 z m -1,6 h -3 v -4 h 3 z"
     id="path10"
     inkscape:connector-curvature="0" /><path
     d="M 10,26 H 5 c -0.552,0 -1,0.448 -1,1 v 12 c 0,0.552 0.448,1 1,1 h 5 c 0.552,0 1,-0.448 1,-1 V 27 c 0,-0.552 -0.448,-1 -1,-1 z M 9,38 H 6 V 28 h 3 z"
     id="path12"
     inkscape:connector-curvature="0" /><rect
     x="28"
     y="39"
     width="2"
     height="2"
     id="rect14" /><rect
     x="32"
     y="13"
     width="2"
     height="2"
     id="rect16" /><rect
     x="30"
     y="15"
     width="2"
     height="2"
     id="rect18" /><rect
     x="34"
     y="15"
     width="2"
     height="2"
     id="rect20" /><rect
     x="36"
     y="13"
     width="2"
     height="2"
     id="rect22" /><rect
     x="38"
     y="15"
     width="2"
     height="2"
     id="rect24" /><rect
     x="28"
     y="13"
     width="2"
     height="2"
     id="rect26" /><rect
     x="26"
     y="15"
     width="2"
     height="2"
     id="rect28" /><rect
     x="24"
     y="13"
     width="2"
     height="2"
     id="rect30" /><rect
     x="22"
     y="15"
     width="2"
     height="2"
     id="rect32" /><rect
     x="20"
     y="13"
     width="2"
     height="2"
     id="rect34" /><rect
     x="18"
     y="15"
     width="2"
     height="2"
     id="rect36" /><rect
     x="16"
     y="13"
     width="2"
     height="2"
     id="rect38" /><rect
     x="14"
     y="15"
     width="2"
     height="2"
     id="rect40" /><rect
     x="12"
     y="13"
     width="2"
     height="2"
     id="rect42" /><rect
     x="10"
     y="15"
     width="2"
     height="2"
     id="rect44" /><rect
     x="8"
     y="13"
     width="2"
     height="2"
     id="rect46" /><rect
     x="6"
     y="15"
     width="2"
     height="2"
     id="rect48" /><rect
     x="4"
     y="13"
     width="2"
     height="2"
     id="rect50" /><text
     x="0"
     y="79"
     font-size="5px"
     font-weight="bold"
     id="text52"
     style="font-weight:bold;font-size:5px;font-family:'Helvetica Neue', Helvetica, Arial-Unicode, Arial, Sans-serif;fill:#000000">Created by Becris</text>
<text
     x="0"
     y="84"
     font-size="5px"
     font-weight="bold"
     id="text54"
     style="font-weight:bold;font-size:5px;font-family:'Helvetica Neue', Helvetica, Arial-Unicode, Arial, Sans-serif;fill:#000000">from the Noun Project</text>
</svg>