<?xml version="1.0" encoding="UTF-8" standalone="no"?>
<svg
   xmlns:dc="http://purl.org/dc/elements/1.1/"
   xmlns:cc="http://creativecommons.org/ns#"
   xmlns:rdf="http://www.w3.org/1999/02/22-rdf-syntax-ns#"
   xmlns:svg="http://www.w3.org/2000/svg"
   xmlns="http://www.w3.org/2000/svg"
   xmlns:sodipodi="http://sodipodi.sourceforge.net/DTD/sodipodi-0.dtd"
   xmlns:inkscape="http://www.inkscape.org/namespaces/inkscape"
   data-name="Layer 1"
   viewBox="0 0 98.700409 98.680222"
   x="0px"
   y="0px"
   version="1.1"
   id="svg10"
   sodipodi:docname="services.svg"
   width="98.700409"
   height="98.680222"
   inkscape:version="0.92.4 (5da689c313, 2019-01-14)">
  <metadata
     id="metadata16">
    <rdf:RDF>
      <cc:Work
         rdf:about="">
        <dc:format>image/svg+xml</dc:format>
        <dc:type
           rdf:resource="http://purl.org/dc/dcmitype/StillImage" />
        <dc:title>Artboard 8</dc:title>
      </cc:Work>
    </rdf:RDF>
  </metadata>
  <defs
     id="defs14" />
  <sodipodi:namedview
     pagecolor="#ffffff"
     bordercolor="#666666"
     borderopacity="1"
     objecttolerance="10"
     gridtolerance="10"
     guidetolerance="10"
     inkscape:pageopacity="0"
     inkscape:pageshadow="2"
     inkscape:window-width="640"
     inkscape:window-height="480"
     id="namedview12"
     showgrid="false"
     fit-margin-top="0"
     fit-margin-left="0"
     fit-margin-right="0"
     fit-margin-bottom="0"
     inkscape:zoom="1.888"
     inkscape:cx="49.350205"
     inkscape:cy="36.840017"
     inkscape:window-x="0"
     inkscape:window-y="0"
     inkscape:window-maximized="0"
     inkscape:current-layer="svg10" />
  <title
     id="title2">Artboard 8</title>
  <path
     d="m 92.900205,39.390205 v 0 l -6.24,-1.05 a 38.65,38.65 0 0 0 -3.12,-7.53 l 3.64,-5.19 a 7,7 0 0 0 -0.78,-9 l -4.31,-4.28 a 7,7 0 0 0 -9,-0.78 l -5.19,3.64 a 38.65,38.65 0 0 0 -7.55,-3.17 l -1.05,-6.2299999 a 7,7 0 0 0 -6.95,-5.79999997399 h -6 a 7,7 0 0 0 -6.91,5.79999997399 l -1.09,6.2299999 a 38.65,38.65 0 0 0 -7.52,3.12 l -5.19,-3.64 a 7,7 0 0 0 -9,0.78 l -4.29,4.31 a 7,7 0 0 0 -0.78,9 l 3.64,5.19 a 38.68,38.68 0 0 0 -3.17,7.55 l -6.2399999,1.05 a 7,7 0 0 0 -5.79999997399,6.95 v 6 a 7,7 0 0 0 5.79999997399,6.91 l 6.2399999,1.09 a 38.72,38.72 0 0 0 3.12,7.52 l -3.64,5.19 a 7,7 0 0 0 0.78,9 l 4.3,4.3 a 7,7 0 0 0 9,0.78 l 5.19,-3.64 a 38.64,38.64 0 0 0 7.56,3.16 l 1.09,6.24 a 7,7 0 0 0 6.91,5.79 h 6 a 7,7 0 0 0 6.91,-5.8 l 1.09,-6.23 a 38.77,38.77 0 0 0 7.53,-3.12 l 5.19,3.64 a 7,7 0 0 0 9,-0.78 l 4.3,-4.3 a 7,7 0 0 0 0.78,-9 l -3.64,-5.19 a 38.6,38.6 0 0 0 3.15,-7.56 l 6.24,-1.09 a 7,7 0 0 0 5.8,-6.91 v -6 a 7,7 0 0 0 -5.8,-6.95 z m 2.8,13 a 4,4 0 0 1 -3.35,3.95 l -7.17,1.26 a 1.5,1.5 0 0 0 -1.19,1.09 35.63,35.63 0 0 1 -3.56,8.57 1.5,1.5 0 0 0 0.07,1.61 l 4.18,6 a 4,4 0 0 1 -0.45,5.14 l -4.3,4.3 a 4,4 0 0 1 -5.14,0.45 l -6,-4.18 a 1.5,1.5 0 0 0 -1.61,-0.07 35.75,35.75 0 0 1 -8.57,3.56 1.5,1.5 0 0 0 -1.09,1.19 l -1.17,7.08 a 4,4 0 0 1 -4,3.32 h -6 a 4,4 0 0 1 -4,-3.32 l -1.26,-7.17 a 1.5,1.5 0 0 0 -1.09,-1.19 35.66,35.66 0 0 1 -8.57,-3.56 1.5,1.5 0 0 0 -1.61,0.07 l -6,4.18 a 4,4 0 0 1 -5.14,-0.45 l -4.3,-4.3 a 4,4 0 0 1 -0.45,-5.14 l 4.18,-6 a 1.5,1.5 0 0 0 0.07,-1.61 35.7,35.7 0 0 1 -3.55,-8.57 1.5,1.5 0 0 0 -1.19,-1.09 l -7.0899999,-1.17 a 4,4 0 0 1 -3.32,-4 v -6 a 4,4 0 0 1 3.32,-4 l 7.1699999,-1.26 a 1.5,1.5 0 0 0 1.19,-1.09 35.7,35.7 0 0 1 3.55,-8.57 1.5,1.5 0 0 0 -0.07,-1.61 l -4.18,-6 a 4,4 0 0 1 0.45,-5.14 l 4.3,-4.3 a 4,4 0 0 1 5.14,-0.45 l 6,4.18 a 1.5,1.5 0 0 0 1.61,0.07 35.62,35.62 0 0 1 8.57,-3.56 1.5,1.5 0 0 0 1.09,-1.19 l 1.18,-7.0799999 a 4,4 0 0 1 4,-3.32 h 6 a 4,4 0 0 1 4,3.32 l 1.26,7.1699999 a 1.5,1.5 0 0 0 1.09,1.19 35.66,35.66 0 0 1 8.57,3.56 1.5,1.5 0 0 0 1.61,-0.07 l 6,-4.18 a 4,4 0 0 1 5.14,0.45 l 4.3,4.3 a 4,4 0 0 1 0.45,5.14 l -4.18,6 a 1.5,1.5 0 0 0 -0.07,1.61 35.67,35.67 0 0 1 3.56,8.57 1.5,1.5 0 0 0 1.19,1.09 l 7.08,1.17 a 4,4 0 0 1 3.32,4 z m -41.27,-14.79 h -1.75 a 2.08,2.08 0 0 0 -1.63,0.74 l -1.7,2.22 -1.78,-2.22 a 2.08,2.08 0 0 0 -1.64,-0.79 h -1.66 a 6.39,6.39 0 0 0 -6.35,7.14 l 1.31,10 a 5.72,5.72 0 0 0 2.65,4.2 l 2.06,14 a 3.62,3.62 0 0 0 3.6,3.22 h 3.51 a 3.6,3.6 0 0 0 3.59,-3.15 l 2.07,-14 a 5.67,5.67 0 0 0 2.74,-4.21 l 1.31,-10 v -0.07 a 6.39,6.39 0 0 0 -6.35,-7.11 z m 3.37,6.74 -1.32,10.07 a 2.74,2.74 0 0 1 -1.69,2.2 1.5,1.5 0 0 0 -0.92,1.17 l -2.19,14.8 a 0.61,0.61 0 0 1 -0.62,0.54 h -3.51 a 0.64,0.64 0 0 1 -0.62,-0.6 l -2.19,-14.77 a 1.5,1.5 0 0 0 -0.9,-1.16 2.69,2.69 0 0 1 -1.63,-2.25 l -1.31,-10 a 3.39,3.39 0 0 1 3.37,-3.78 h 1.22 l 2.5,3.12 a 1.69,1.69 0 0 0 1.36,0.66 v 0 a 1.68,1.68 0 0 0 1.31,-0.65 l 2.5,-3.12 h 1.31 a 3.39,3.39 0 0 1 3.33,3.77 z m -8.45,-7.41 a 7.19,7.19 0 1 0 -7.19,-7.19 7.19,7.19 0 0 0 7.19,7.19 z m 0,-11.37 a 4.19,4.19 0 1 1 -4.19,4.19 4.19,4.19 0 0 1 4.19,-4.19 z"
     id="path4"
     inkscape:connector-curvature="0" />
  <text
     x="-0.64979488"
     y="114.3402"
     font-size="5px"
     font-weight="bold"
     id="text6"
     style="font-weight:bold;font-size:5px;font-family:'Helvetica Neue', Helvetica, Arial-Unicode, Arial, Sans-serif;fill:#000000">Created by Gregor Cresnar</text>
  <text
     x="-0.64979488"
     y="119.3402"
     font-size="5px"
     font-weight="bold"
     id="text8"
     style="font-weight:bold;font-size:5px;font-family:'Helvetica Neue', Helvetica, Arial-Unicode, Arial, Sans-serif;fill:#000000">from the Noun Project</text>
</svg>
