<?xml version="1.0" encoding="UTF-8" standalone="no"?>
<!-- Created with Inkscape (http://www.inkscape.org/) -->

<svg
   xmlns:dc="http://purl.org/dc/elements/1.1/"
   xmlns:cc="http://creativecommons.org/ns#"
   xmlns:rdf="http://www.w3.org/1999/02/22-rdf-syntax-ns#"
   xmlns:svg="http://www.w3.org/2000/svg"
   xmlns="http://www.w3.org/2000/svg"
   xmlns:sodipodi="http://sodipodi.sourceforge.net/DTD/sodipodi-0.dtd"
   xmlns:inkscape="http://www.inkscape.org/namespaces/inkscape"
   width="176.89287mm"
   height="143.85774mm"
   viewBox="0 0 176.89287 143.85774"
   version="1.1"
   id="svg72"
   inkscape:version="0.92.4 (5da689c313, 2019-01-14)"
   sodipodi:docname="menu-grey.svg">
  <defs
     id="defs66" />
  <sodipodi:namedview
     id="base"
     pagecolor="#ffffff"
     bordercolor="#666666"
     borderopacity="1.0"
     inkscape:pageopacity="0.0"
     inkscape:pageshadow="2"
     inkscape:zoom="0.35"
     inkscape:cx="-132.85714"
     inkscape:cy="111.85715"
     inkscape:document-units="mm"
     inkscape:current-layer="layer1"
     showgrid="false"
     fit-margin-top="0"
     fit-margin-left="0"
     fit-margin-right="0"
     fit-margin-bottom="0"
     inkscape:window-width="1366"
     inkscape:window-height="705"
     inkscape:window-x="-8"
     inkscape:window-y="-8"
     inkscape:window-maximized="1" />
  <metadata
     id="metadata69">
    <rdf:RDF>
      <cc:Work
         rdf:about="">
        <dc:format>image/svg+xml</dc:format>
        <dc:type
           rdf:resource="http://purl.org/dc/dcmitype/StillImage" />
        <dc:title></dc:title>
      </cc:Work>
    </rdf:RDF>
  </metadata>
  <g
     inkscape:label="Layer 1"
     inkscape:groupmode="layer"
     id="layer1"
     transform="translate(-18.142857,-34.571128)">
    <path
       inkscape:connector-curvature="0"
       d="m 31.409821,34.571128 c -7.327125,0 -13.266964,6.662598 -13.266964,14.88183 0,8.218736 5.939839,14.88183 13.266964,14.88183 H 181.76875 c 7.32712,0 13.26697,-6.663094 13.26697,-14.88183 0,-8.219232 -5.93985,-14.88183 -13.26697,-14.88183 z m 0,57.047018 c -7.327125,0 -13.266964,6.662598 -13.266964,14.881874 0,8.21874 5.939839,14.88183 13.266964,14.88183 H 181.76875 c 7.32712,0 13.26697,-6.66309 13.26697,-14.88183 0,-8.219276 -5.93985,-14.881874 -13.26697,-14.881874 z m 0,57.047064 c -7.327125,0 -13.266964,6.66259 -13.266964,14.88183 0,8.21874 5.939839,14.88183 13.266964,14.88183 H 181.76875 c 7.32712,0 13.26697,-6.66309 13.26697,-14.88183 0,-8.21924 -5.93985,-14.88183 -13.26697,-14.88183 z"
       style="color:#000000;text-indent:0;text-transform:none;direction:ltr;baseline-shift:baseline;display:inline;overflow:visible;visibility:visible;fill:#b4b4b4;fill-opacity:1;stroke:none;stroke-width:2.34186935;enable-background:accumulate"
       marker="none"
       visibility="visible"
       display="inline"
       overflow="visible"
       id="path26" />
  </g>
</svg>
